<svg xmlns="http://www.w3.org/2000/svg" width="920" height="1010" viewBox="0 0 920 1010" version="1.1"><path d="M 141.652 1.133 C 119.710 1.964, 90.948 4.302, 87.827 5.508 C 85.587 6.374, 85.201 7.617, 84.019 17.792 C 81.524 39.260, 80.773 63.801, 80.289 139.690 C 79.655 238.941, 80.915 269.368, 86.563 291.275 C 90.019 304.677, 97.377 314.188, 106.867 317.517 C 109.651 318.494, 117.486 319.505, 126.500 320.051 C 151.630 321.573, 153.917 322.297, 157.228 329.782 C 158.881 333.520, 159.280 336.504, 159.280 345.140 C 159.280 354.446, 158.965 356.488, 156.890 360.627 C 153.526 367.339, 150.102 368.814, 135.268 369.940 C 114.486 371.517, 104.237 374.990, 98.853 382.277 C 89.724 394.635, 76.845 429.750, 69.005 463.663 C 63.522 487.381, 61.048 495.193, 55.955 504.872 C 49.919 516.343, 42.368 526.952, 32.576 537.720 C 11.290 561.127, 2.642 584.025, 1.312 620.500 C 0.024 655.799, 7.005 677.937, 25.101 695.939 C 33.906 704.698, 44.418 711.334, 59.132 717.420 C 94.019 731.852, 100.740 739.558, 106.132 771.305 C 108.983 788.091, 108.538 803.375, 104.990 810.500 C 102.744 815.009, 102.136 815.530, 98.791 815.808 C 89.725 816.561, 79.341 799.541, 69.989 768.598 C 62.704 744.499, 58.052 736.140, 49.663 732.079 C 46.152 730.379, 43.464 730.001, 34.934 730.006 C 22.253 730.012, 17.607 731.193, 13.297 735.503 C 11.484 737.316, 9.990 738.507, 9.978 738.150 C 9.954 737.451, 6 745.918, 6 746.668 C 6 746.916, 6.337 746.911, 6.750 746.658 C 7.162 746.405, 7.553 759.541, 7.619 775.849 C 7.831 828.879, 11.553 855.679, 20.761 870.468 C 28.213 882.439, 43.104 895.449, 57.500 902.569 C 84.208 915.777, 110.997 913.632, 133.848 896.455 C 141.906 890.397, 146.743 884.542, 163.108 861.033 C 170.394 850.565, 176.839 842.005, 177.428 842.011 C 179.537 842.031, 190.725 851.218, 204 863.830 C 224.956 883.740, 230.909 887.278, 246.430 889.050 C 268.299 891.546, 320.151 883.848, 341.456 874.942 C 350.669 871.091, 352.683 869.662, 358.993 862.500 C 379.634 839.075, 396.973 798.273, 397.212 772.568 C 397.430 749.156, 395.080 703.250, 393.113 692.500 C 392.006 686.450, 390.595 678.350, 389.977 674.500 C 389.358 670.650, 387.550 664.800, 385.959 661.500 C 384.367 658.200, 381.771 652.575, 380.191 649 C 376.165 639.895, 362.914 620.467, 348.026 601.841 C 327.150 575.725, 323.269 567.263, 324.304 550.116 C 325.279 533.966, 334.242 502.600, 341.759 489.031 C 353.941 467.042, 368.835 465.583, 388.757 484.427 C 400.196 495.247, 405.571 506.869, 410.446 531.328 C 413.677 547.537, 415.400 561.626, 419.002 601.286 C 423.495 650.761, 426.259 669.884, 432.114 692 C 436.716 709.385, 442.659 722.724, 457.188 748.274 C 482.132 792.142, 496.640 823.199, 502.538 845.356 C 506.853 861.570, 507.916 869.586, 508.989 894 C 510.351 924.985, 511.568 937.992, 513.996 947.486 C 519.546 969.183, 529.267 978.832, 546.537 979.785 C 554.154 980.205, 554.746 980.085, 557.837 977.484 C 566.351 970.319, 571.805 949.474, 579.940 893 C 585.685 853.120, 588.009 827.574, 587.983 804.605 C 587.937 764.675, 581.604 742.133, 561.974 712.028 C 546.653 688.531, 540.996 669.268, 541.004 640.619 C 541.009 623.586, 542.898 611.055, 547.563 597.110 C 551.931 584.051, 556.245 575.826, 564.468 564.875 C 580.266 543.840, 592.753 537.796, 606.283 544.638 C 614.068 548.574, 625.962 560.973, 630.383 569.760 C 642.979 594.798, 640.960 634.401, 625.727 661.065 C 619.407 672.127, 617.358 677.427, 615.099 688.544 C 611.685 705.346, 610.695 720.535, 611.290 747 C 612.090 782.625, 616.029 811.117, 623.238 833.440 C 627.918 847.929, 632.153 854.463, 640.587 860.210 C 686.467 891.466, 820.247 898.466, 885.339 873.017 C 905.339 865.197, 913.356 858.682, 917.202 847.122 C 919.319 840.760, 919.420 838.710, 919.774 794.824 L 920.142 749.149 915.374 739.609 C 908.299 725.457, 899.445 714.072, 890.729 707.920 C 873.267 695.594, 853.533 689.066, 837.418 690.285 C 828.362 690.970, 821.876 693.847, 819.038 698.439 C 815.074 704.853, 816.916 725.484, 823.999 754 C 827.611 768.545, 828.810 782.401, 827.023 788.964 C 825.429 794.818, 819.816 800.430, 813.964 802.021 C 803.259 804.932, 776.419 801.132, 753.110 793.406 C 725.880 784.380, 713.272 772.490, 712.213 754.836 C 711.388 741.080, 715.524 730.948, 732.955 704.035 C 749.792 678.037, 750.787 676.454, 761.246 659 C 783.553 621.777, 792.469 598.208, 797.580 562.954 C 798.906 553.804, 799.337 540.574, 799.720 497.186 C 800.441 415.566, 798.083 391.019, 788.288 378.142 C 785.034 373.865, 776.879 370.025, 771 370.002 C 757.965 369.952, 746.763 365.911, 740.784 359.101 C 736.159 353.834, 732.073 344.241, 731.119 336.410 C 730.656 332.609, 730.480 328.960, 730.727 328.299 C 731.256 326.887, 737.500 324.453, 744.372 322.980 C 751.332 321.489, 775.810 320.045, 794.518 320.021 C 809.711 320.001, 810.715 319.878, 814.018 317.628 C 821.301 312.666, 821.005 323.490, 818.263 162.500 C 816.914 83.300, 815.401 16.869, 814.900 14.875 C 813.805 10.514, 807.558 4.154, 802.277 2.023 C 798.980 0.694, 783.143 0.465, 677.692 0.223 L 556.885 -0.054 553.967 2.023 C 552.215 3.271, 550.665 5.578, 550.085 7.800 C 548.804 12.712, 547.110 64.384, 546.320 122.601 L 545.681 169.702 507.091 170.387 C 485.866 170.764, 453.200 171.496, 434.500 172.014 C 381 173.498, 384.871 173.544, 383.308 171.407 C 377.507 163.473, 376.438 142.704, 378.002 68.279 C 379.213 10.672, 379.189 7.937, 377.459 5.279 C 376.464 3.750, 374.941 1.952, 374.075 1.282 C 372.858 0.340, 348.771 0.091, 268 0.185 C 210.525 0.252, 153.669 0.678, 141.652 1.133 M 634 11.095 C 611.859 12.097, 586.443 14.679, 580.055 16.576 C 575.212 18.014, 575.117 18.121, 574.074 23.269 C 570.257 42.102, 568.848 72.232, 568.722 137.717 L 568.618 191.935 564.559 192.424 C 559.115 193.079, 525.762 193.919, 460 195.056 C 351.183 196.937, 348.789 197.023, 346.097 199.139 C 344.776 200.178, 343.552 200.886, 343.378 200.712 C 343.204 200.538, 343.486 172.969, 344.004 139.448 C 344.521 105.926, 344.948 65.225, 344.950 49 C 344.955 22.137, 344.795 19.291, 343.158 17.163 L 341.361 14.827 287.430 13.475 C 162.681 10.347, 136.956 10.516, 121.405 14.567 C 105.631 18.675, 104.619 21.383, 101.803 67 C 100.083 94.864, 100.085 224.886, 101.806 244 C 104.874 278.080, 109.629 289.612, 122 292.976 C 133.213 296.025, 169.215 299.805, 190.329 300.150 C 195.373 300.232, 198.239 300.489, 196.698 300.721 C 193.531 301.198, 192 304.092, 192 309.599 C 192 316.049, 184.030 362.441, 181.537 370.500 C 176.657 386.277, 173.114 388.819, 154.159 390.138 C 147.301 390.616, 139.849 391.502, 137.600 392.108 C 128.127 394.659, 121.507 399.601, 115.858 408.341 C 110.240 417.033, 106.710 427.166, 100.521 452.369 C 91.189 490.373, 84.349 510.266, 73.830 530 C 65.529 545.573, 59.311 553.747, 44.517 568.532 C 24.767 588.270, 20 597.893, 20 618.022 C 20 639.506, 29.717 660.216, 47.684 677.023 C 56.997 685.735, 66.276 691.475, 81.967 698.231 C 116.207 712.974, 122.680 721.471, 127.403 757.870 C 131.075 786.179, 128.462 812.044, 120.278 828.383 C 115.294 838.332, 104.448 847.105, 95.328 848.564 C 88.251 849.695, 83.886 846.858, 70.464 832.406 C 51.102 811.556, 49.060 808.331, 45.938 793.689 C 43.240 781.032, 42.246 778.349, 38.791 774.414 C 35.112 770.225, 30.441 769.767, 27.847 773.340 C 24.222 778.337, 23.711 782.900, 24.793 800.619 C 25.885 818.502, 27.222 824.233, 34.053 840.284 C 43.358 862.150, 67.535 882.023, 89.855 886.150 C 101.182 888.245, 108.181 885.081, 118.184 873.343 C 133.326 855.576, 133.487 855.360, 143.864 838.916 C 151.235 827.235, 156.764 809.089, 161.696 780.385 C 164.079 766.523, 164.431 761.762, 164.463 743 C 164.493 725.440, 164.158 720.034, 162.633 713.500 C 158.047 693.847, 150.394 679.099, 139.741 669.383 C 132.280 662.579, 127.030 659.628, 116.057 656.072 C 105.072 652.511, 101.327 650.315, 96.083 644.357 C 90.712 638.256, 88.498 631.500, 88.591 621.500 C 88.688 611.116, 90.942 602.832, 97.024 590.500 C 104.010 576.338, 112.674 565.394, 135.024 542.500 C 156.081 520.931, 167.850 507.376, 174.676 496.831 C 182.100 485.361, 187.809 481, 195.403 481 C 200.391 481, 203.968 482.607, 208.335 486.810 C 215.893 494.083, 218.765 503.002, 220.005 523.050 C 221.491 547.058, 226.742 566.504, 237.948 589.500 C 247.712 609.536, 259.942 626.641, 280.490 649 C 310.718 681.891, 324.307 709.103, 325.687 739.500 C 326.342 753.930, 324.594 765.479, 319.414 780.963 C 312.407 801.904, 303.050 815.408, 291.707 820.949 C 278.901 827.204, 260.191 828.721, 251.403 824.216 C 242.417 819.609, 234.706 808.240, 223.709 783.385 C 218.426 771.444, 213.649 763.698, 208.461 758.659 C 203.305 753.652, 200.217 753.760, 195.637 759.111 C 187.234 768.928, 188.489 788.087, 198.939 809.500 C 208.337 828.760, 226.119 848.527, 240.268 855.444 C 252.459 861.404, 258.084 862.411, 279 862.379 C 300.978 862.345, 308.517 860.996, 321 854.860 C 331.760 849.572, 341.104 840.496, 350.401 826.303 C 362.534 807.780, 367.298 795.121, 370.602 772.622 C 372.667 758.562, 372.085 719.716, 369.589 705 C 362.967 665.955, 351.776 641.969, 336.608 634.311 C 326.997 629.458, 320.164 621.808, 314.447 609.500 C 303.172 585.229, 299.923 553.772, 305.394 521.853 C 311.224 487.841, 319.102 467.499, 329.522 459.551 C 338.867 452.423, 353 449.248, 370.428 450.361 C 393.698 451.847, 406.119 457.919, 415.946 472.611 C 428.090 490.768, 433.699 517.056, 439.501 583 C 444.706 642.173, 449.733 669.487, 460.081 694.822 C 462.252 700.138, 469.156 713.490, 475.423 724.494 C 507.237 780.355, 522.193 813.151, 528.013 839.818 C 529.093 844.767, 530.448 855.495, 531.023 863.658 C 533.704 901.679, 539.986 936.968, 544.221 937.799 C 547.432 938.429, 551.486 921.679, 558.453 879 C 563.976 845.169, 565.062 835.758, 565.693 816.249 C 566.883 779.487, 561.765 762.753, 539.011 729 C 523.736 706.341, 517.386 684.225, 516.285 649.849 C 514.951 608.238, 524.167 571.350, 541.648 548.326 C 557.855 526.982, 584.961 515.906, 610 520.398 C 627.889 523.608, 642.601 534.008, 649.356 548.220 C 664.533 580.149, 662.961 649.372, 646.358 680.242 C 634.928 701.495, 633.122 707.181, 632.300 724.500 C 631.445 742.517, 635.638 784.384, 640.477 806.147 C 645.114 827.003, 651.562 835.372, 670.533 845.157 C 688.580 854.465, 707.880 860.383, 732.500 864.156 C 749.336 866.736, 783.683 867.695, 801.822 866.091 C 844.723 862.298, 880.752 849.300, 896.411 831.967 C 914.798 811.615, 908.104 765.468, 882.691 737.390 C 876.923 731.017, 868.562 726.391, 864.606 727.384 C 854.438 729.936, 851.461 747.611, 856.116 777.784 C 860.002 802.969, 856.949 811.133, 840.542 819.434 C 831.424 824.048, 825.641 825.146, 807.493 825.711 C 793.449 826.148, 787.956 825.873, 775.970 824.135 C 742.545 819.290, 713.665 807.970, 703.700 795.809 C 699.319 790.463, 694.694 780.804, 692.300 772 C 690.945 767.020, 690.548 761.876, 690.602 750 C 690.663 736.575, 691.023 733.186, 693.294 724.687 C 697.386 709.376, 701.445 701.259, 717.644 676 C 753.784 619.644, 766.226 595.070, 773.357 565.961 C 778 547.011, 779.123 534.971, 779.697 498 C 780.663 435.770, 777.234 408.251, 767.193 397.658 C 762.456 392.661, 757.741 390.954, 746.041 390.003 C 740.098 389.520, 733.567 388.428, 731.529 387.577 C 717.802 381.841, 711.302 367.471, 710.461 341 C 709.772 319.332, 709.189 317.935, 695.355 304.803 C 693.213 302.769, 690.489 300.744, 689.302 300.303 C 688.109 299.859, 698.615 299.441, 712.823 299.367 C 749.613 299.177, 779.403 296.285, 786.350 292.228 C 793.679 287.947, 795.589 281.055, 797.081 253.500 C 801.708 168.070, 800.339 49.255, 794.489 28.472 C 791.091 16.403, 780.563 12.828, 743 10.990 C 720.411 9.885, 659.460 9.944, 634 11.095 M 190.314 519.217 C 189.771 519.923, 188.273 523.157, 186.985 526.405 C 182.182 538.510, 165.466 557.786, 145 574.818 C 123.322 592.860, 113.159 605.287, 112.237 614.883 C 111.353 624.082, 117.176 629.756, 132.452 634.582 C 143.459 638.060, 149.138 641.385, 157.646 649.330 C 167.048 658.110, 173.795 667.113, 179.882 679 C 186.374 691.679, 188.839 699.282, 189.956 710.080 C 191.322 723.287, 195.045 728.084, 205.091 729.584 C 214.656 731.011, 227.014 742.438, 239.066 761 C 256.416 787.719, 264.598 796.600, 272.892 797.712 C 280.504 798.733, 287.690 791.301, 294.084 775.796 C 298.825 764.298, 300.295 757.400, 300.326 746.500 C 300.395 721.675, 288.905 700.801, 252.196 659.066 C 213.542 615.120, 209.600 606.937, 200.542 551.855 C 195.791 522.960, 193.371 515.239, 190.314 519.217" stroke="none" fill="#ffffff" fill-rule="evenodd"/><path d="M 543 193.121 C 530.625 193.543, 494.175 194.381, 462 194.985 C 341.563 197.242, 348.960 196.970, 345.858 199.263 C 342.408 201.814, 342.230 202.697, 340.995 223.500 C 340.440 232.850, 339.475 245, 338.850 250.500 C 338.225 256, 337.599 264.100, 337.458 268.500 C 337.312 273.062, 336.514 278.098, 335.601 280.218 C 334.721 282.263, 334 284.997, 334 286.294 C 334 289.023, 330.759 292.390, 326.624 293.957 C 317.025 297.594, 281.692 300.066, 230.196 300.704 L 193.892 301.154 192.946 303.642 C 192.426 305.011, 192 307.691, 192 309.599 C 192 316.049, 184.030 362.441, 181.537 370.500 C 176.657 386.277, 173.114 388.819, 154.159 390.138 C 147.301 390.616, 139.849 391.502, 137.600 392.108 C 128.127 394.659, 121.507 399.601, 115.858 408.341 C 110.240 417.033, 106.710 427.166, 100.521 452.369 C 91.189 490.373, 84.349 510.266, 73.830 530 C 65.529 545.573, 59.311 553.747, 44.517 568.532 C 24.767 588.270, 20 597.893, 20 618.022 C 20 639.506, 29.717 660.216, 47.684 677.023 C 56.997 685.735, 66.276 691.475, 81.967 698.231 C 116.207 712.974, 122.680 721.471, 127.403 757.870 C 131.075 786.179, 128.462 812.044, 120.278 828.383 C 115.294 838.332, 104.448 847.105, 95.328 848.564 C 88.251 849.695, 83.886 846.858, 70.464 832.406 C 51.102 811.556, 49.060 808.331, 45.938 793.689 C 43.240 781.032, 42.246 778.349, 38.791 774.414 C 35.112 770.225, 30.441 769.767, 27.847 773.340 C 24.222 778.337, 23.711 782.900, 24.793 800.619 C 25.885 818.502, 27.222 824.233, 34.053 840.284 C 43.358 862.150, 67.535 882.023, 89.855 886.150 C 101.182 888.245, 108.181 885.081, 118.184 873.343 C 133.326 855.576, 133.487 855.360, 143.864 838.916 C 151.235 827.235, 156.764 809.089, 161.696 780.385 C 164.079 766.523, 164.431 761.762, 164.463 743 C 164.493 725.440, 164.158 720.034, 162.633 713.500 C 158.047 693.847, 150.394 679.099, 139.741 669.383 C 132.280 662.579, 127.030 659.628, 116.057 656.072 C 105.072 652.511, 101.327 650.315, 96.083 644.357 C 90.712 638.256, 88.498 631.500, 88.591 621.500 C 88.688 611.116, 90.942 602.832, 97.024 590.500 C 104.010 576.338, 112.674 565.394, 135.024 542.500 C 156.081 520.931, 167.850 507.376, 174.676 496.831 C 182.100 485.361, 187.809 481, 195.403 481 C 200.391 481, 203.968 482.607, 208.335 486.810 C 215.893 494.083, 218.765 503.002, 220.005 523.050 C 221.491 547.058, 226.742 566.504, 237.948 589.500 C 247.712 609.536, 259.942 626.641, 280.490 649 C 310.718 681.891, 324.307 709.103, 325.687 739.500 C 326.342 753.930, 324.594 765.479, 319.414 780.963 C 312.407 801.904, 303.050 815.408, 291.707 820.949 C 278.901 827.204, 260.191 828.721, 251.403 824.216 C 242.417 819.609, 234.706 808.240, 223.709 783.385 C 218.426 771.444, 213.649 763.698, 208.461 758.659 C 203.305 753.652, 200.217 753.760, 195.637 759.111 C 187.234 768.928, 188.489 788.087, 198.939 809.500 C 208.337 828.760, 226.119 848.527, 240.268 855.444 C 252.459 861.404, 258.084 862.411, 279 862.379 C 300.978 862.345, 308.517 860.996, 321 854.860 C 331.760 849.572, 341.104 840.496, 350.401 826.303 C 362.534 807.780, 367.298 795.121, 370.602 772.622 C 372.667 758.562, 372.085 719.716, 369.589 705 C 362.967 665.955, 351.776 641.969, 336.608 634.311 C 326.997 629.458, 320.164 621.808, 314.447 609.500 C 303.172 585.229, 299.923 553.772, 305.394 521.853 C 311.224 487.841, 319.102 467.499, 329.522 459.551 C 338.867 452.423, 353 449.248, 370.428 450.361 C 393.698 451.847, 406.119 457.919, 415.946 472.611 C 428.090 490.768, 433.699 517.056, 439.501 583 C 444.706 642.173, 449.733 669.487, 460.081 694.822 C 462.252 700.138, 469.156 713.490, 475.423 724.494 C 507.237 780.355, 522.193 813.151, 528.013 839.818 C 529.093 844.767, 530.448 855.495, 531.023 863.658 C 533.704 901.679, 539.986 936.968, 544.221 937.799 C 547.432 938.429, 551.486 921.679, 558.453 879 C 563.976 845.169, 565.062 835.758, 565.693 816.249 C 566.883 779.487, 561.765 762.753, 539.011 729 C 523.736 706.341, 517.386 684.225, 516.285 649.849 C 514.951 608.238, 524.167 571.350, 541.648 548.326 C 557.855 526.982, 584.961 515.906, 610 520.398 C 627.889 523.608, 642.601 534.008, 649.356 548.220 C 664.533 580.149, 662.961 649.372, 646.358 680.242 C 634.928 701.495, 633.122 707.181, 632.300 724.500 C 631.445 742.517, 635.638 784.384, 640.477 806.147 C 645.114 827.003, 651.562 835.372, 670.533 845.157 C 688.580 854.465, 707.880 860.383, 732.500 864.156 C 749.336 866.736, 783.683 867.695, 801.822 866.091 C 844.723 862.298, 880.752 849.300, 896.411 831.967 C 914.798 811.615, 908.104 765.468, 882.691 737.390 C 876.923 731.017, 868.562 726.391, 864.606 727.384 C 854.438 729.936, 851.461 747.611, 856.116 777.784 C 860.002 802.969, 856.949 811.133, 840.542 819.434 C 831.424 824.048, 825.641 825.146, 807.493 825.711 C 793.449 826.148, 787.956 825.873, 775.970 824.135 C 742.545 819.290, 713.665 807.970, 703.700 795.809 C 699.319 790.463, 694.694 780.804, 692.300 772 C 690.945 767.020, 690.548 761.876, 690.602 750 C 690.663 736.575, 691.023 733.186, 693.294 724.687 C 697.386 709.376, 701.445 701.259, 717.644 676 C 753.784 619.644, 766.226 595.070, 773.357 565.961 C 778 547.011, 779.123 534.971, 779.697 498 C 780.663 435.770, 777.234 408.251, 767.193 397.658 C 762.456 392.661, 757.741 390.954, 746.041 390.003 C 740.098 389.520, 733.567 388.428, 731.529 387.577 C 717.802 381.841, 711.302 367.471, 710.461 341 C 709.768 319.190, 708.947 317.277, 694.738 304.309 C 689.359 299.400, 689.313 299.390, 665.500 297.966 C 648.356 296.940, 644.404 296.544, 627 294.111 C 622.875 293.534, 616.800 293.039, 613.500 293.012 C 606.560 292.955, 590.531 288.993, 584.062 285.737 C 580.555 283.972, 579.332 282.657, 578.263 279.500 C 575.349 270.899, 572.782 250.205, 571.998 229 C 570.882 198.827, 569.984 191.895, 567.231 192.177 C 566.279 192.275, 555.375 192.700, 543 193.121" stroke="none" fill="#a87aff" fill-rule="evenodd"/><path d="M 633.589 11.119 C 613.500 12.035, 587.814 14.514, 581.223 16.174 C 578.782 16.789, 576.268 18.200, 575.500 19.385 C 573.445 22.562, 571.225 40.044, 569.961 63 C 568.388 91.597, 568.401 186.880, 569.980 198.500 C 570.653 203.450, 571.561 217.175, 571.998 229 C 572.782 250.206, 575.349 270.898, 578.263 279.500 C 579.333 282.659, 580.555 283.971, 584.071 285.741 C 591.101 289.280, 606.489 292.730, 618.119 293.376 C 623.959 293.700, 630.934 294.385, 633.619 294.899 C 652.749 298.558, 700.666 300.599, 732.203 299.098 C 778.316 296.903, 790.238 293.977, 792.970 284.186 C 798.111 265.761, 801.503 157.577, 799.113 88.259 C 797.369 37.690, 795.854 26.108, 790.287 20.775 C 784.191 14.937, 771.969 12.408, 743 10.990 C 720.194 9.874, 659.310 9.946, 633.589 11.119 M 139.194 12.022 C 126.831 12.997, 117.245 15.089, 112.533 17.841 C 105.606 21.886, 104.187 28.390, 101.803 67 C 100.083 94.864, 100.085 224.886, 101.806 244 C 104.235 270.977, 108.643 285.964, 115.365 290.097 C 119.139 292.418, 122.781 293.451, 134.083 295.409 C 176.612 302.777, 305.935 301.796, 326.647 293.948 C 330.761 292.389, 334 289.017, 334 286.294 C 334 284.997, 334.721 282.263, 335.601 280.218 C 336.515 278.096, 337.311 273.066, 337.456 268.500 C 337.596 264.100, 338.243 255.775, 338.894 250 C 342.311 219.706, 343.735 179.713, 344.488 93 C 345.104 22.001, 345.061 19.420, 343.242 17.163 L 341.360 14.825 287.430 13.458 C 212.134 11.548, 152.526 10.971, 139.194 12.022" stroke="none" fill="#0bfc6c" fill-rule="evenodd"/></svg>