<svg xmlns="http://www.w3.org/2000/svg" width="1500" height="1500" viewBox="0 0 1500 1500" version="1.1"><path d="M 244 279.288 L 244 407.575 248.784 412.288 L 253.569 417 320.784 417 L 388 417 388 504.788 L 388 592.575 392.784 597.288 L 397.569 602 419.205 602 L 440.841 602 441.379 608.250 C 441.675 611.688, 442.847 633.164, 443.983 655.975 C 445.120 678.786, 446.383 697.783, 446.791 698.191 C 447.430 698.830, 473.584 700.548, 512.500 702.508 C 518.550 702.813, 525.300 703.279, 527.500 703.545 C 529.700 703.811, 546.439 704.475, 564.697 705.021 C 596.706 705.978, 647.828 705.004, 660.453 703.198 L 665.405 702.489 665.453 649.330 C 665.479 620.093, 665.823 595.847, 666.219 595.450 C 666.614 595.054, 668.061 595.465, 669.434 596.365 C 671.684 597.839, 678.821 598, 742.014 598 C 801.861 598, 812.516 597.784, 814.955 596.523 C 821.198 593.295, 833.376 582.518, 839.424 574.870 C 854.300 556.056, 864.948 524.631, 870.382 483.500 C 872.776 465.380, 872.879 465.288, 872.287 481.803 C 871.986 490.220, 871.715 525.770, 871.686 560.803 C 871.636 621.058, 872.165 638.843, 875.036 673.500 C 876.528 691.503, 876.834 692.928, 879.338 693.500 C 880.527 693.771, 891.625 694.677, 904 695.513 C 916.375 696.350, 936.027 697.699, 947.671 698.511 C 984.925 701.112, 1022.815 702.068, 1046.729 701.012 C 1068.474 700.051, 1085.297 698.591, 1088.420 697.392 C 1089.815 696.857, 1089.997 693.028, 1089.978 664.643 C 1089.948 622.329, 1088.303 540.534, 1086.989 516 C 1084.833 475.768, 1080.648 434.329, 1078.519 432.133 C 1077.404 430.982, 1061.084 430.903, 975.792 431.633 L 874.391 432.500 875.136 428 C 876.261 421.204, 876.143 342.720, 874.978 322.361 C 869.612 228.630, 852.438 183.874, 814.500 164.757 C 807.323 161.141, 792.098 156.491, 780.500 154.374 C 765.959 151.718, 717.980 151.695, 703.500 154.336 C 690.144 156.772, 674.186 162.143, 665 167.294 C 654.646 173.100, 640.024 187.793, 634.061 198.384 C 615.718 230.959, 608 286.835, 608 387.063 C 608 412.594, 608.357 426.953, 608.996 427.167 C 609.545 427.350, 589.407 427.500, 564.246 427.500 C 519.305 427.500, 504.086 428.226, 482.661 431.394 L 474 432.675 474 424.837 L 474 417 491.500 417 L 509 417 509 384.555 L 509 352.110 504.250 347.578 L 499.500 343.046 486.750 343.023 L 474 343 474.002 339.250 C 474.003 337.188, 471.948 296.125, 469.435 248 L 464.866 160.500 460.221 155.750 L 455.575 151 421.788 151 L 388 151 388 247 L 388 343 359 343 L 330 343 329.993 340.750 C 329.990 339.512, 327.968 300.475, 325.500 254 C 323.032 207.525, 321.010 167.568, 321.007 165.207 C 321.001 161.484, 320.384 160.256, 316.363 155.957 L 311.726 151 277.863 151 L 244 151 244 279.288 M 969 280.288 L 969 408.575 973.784 413.288 L 978.569 418 1045.784 418 L 1113 418 1113 505.788 L 1113 593.575 1117.784 598.288 L 1122.569 603 1160.784 603 L 1199 603 1199 510.500 L 1199 418 1216.500 418 L 1234 418 1234 385.555 L 1234 353.110 1229.250 348.578 L 1224.500 344.046 1211.750 344.023 L 1199 344 1199.002 340.250 C 1199.003 338.188, 1196.948 297.125, 1194.435 249 L 1189.866 161.500 1185.221 156.750 L 1180.575 152 1146.788 152 L 1113 152 1113 248 L 1113 344 1084 344 L 1055 344 1054.993 341.750 C 1054.990 340.512, 1052.968 301.475, 1050.500 255 C 1048.032 208.525, 1046.010 168.568, 1046.007 166.207 C 1046.001 162.484, 1045.384 161.256, 1041.363 156.957 L 1036.726 152 1002.863 152 L 969 152 969 280.288 M 746 240.082 C 731.779 240.975, 724.949 242.935, 716.489 248.551 C 705.190 256.051, 701.297 263.217, 697.980 282.619 C 694.560 302.623, 693.679 327.362, 694.336 385 C 695.411 479.409, 699.095 510.114, 710.340 518.406 C 712.989 520.359, 714.267 520.481, 729.340 520.220 C 748.564 519.886, 754.290 518.989, 762.906 514.957 C 776.011 508.824, 781.316 502.086, 784.991 486.905 C 790.460 464.310, 792.756 410.753, 791.066 345.226 C 789.034 266.467, 784.746 243.801, 771.168 240.030 C 767.147 238.913, 764.526 238.918, 746 240.082" stroke="none" fill="#00fe66" fill-rule="evenodd"/><path d="M 965.287 431.740 C 968.469 431.939, 973.419 431.937, 976.287 431.736 C 979.154 431.535, 976.550 431.372, 970.500 431.374 C 964.450 431.376, 962.104 431.541, 965.287 431.740 M 864.800 596.533 C 864.455 596.879, 819.471 597.463, 764.836 597.831 L 665.500 598.500 665.207 605.146 L 664.913 611.791 750.207 611.374 C 797.118 611.145, 843.732 610.692, 853.793 610.369 L 872.086 609.780 871.793 603.140 C 871.502 596.551, 871.477 596.498, 868.464 596.203 C 866.794 596.039, 865.145 596.188, 864.800 596.533 M 994.378 735.037 C 994.860 753.760, 994.963 769.370, 994.606 769.728 C 994.249 770.085, 982.240 769.607, 967.919 768.666 C 953.599 767.725, 941.459 767.217, 940.941 767.536 C 940.423 767.856, 940 771.016, 940 774.559 C 940 780.568, 940.151 781.001, 942.250 781.012 C 943.487 781.019, 967.450 782.589, 995.500 784.502 C 1023.550 786.416, 1047.882 787.985, 1049.571 787.990 L 1052.643 788 1055.288 799.250 C 1062.463 829.755, 1065.466 854.694, 1065.434 883.500 C 1065.408 906.677, 1064.487 916.578, 1060.456 937 C 1056.899 955.021, 1051.574 965.374, 1023.168 1009.500 C 994.894 1053.421, 984.202 1073.035, 977.378 1093.500 C 974.197 1103.039, 973.646 1106.101, 973.227 1116.555 C 972.466 1135.582, 976.216 1145.521, 988.878 1158.031 C 1003.532 1172.510, 1029.021 1182.535, 1063.998 1187.574 C 1078.239 1189.625, 1102.292 1189.088, 1111.500 1186.512 C 1127.385 1182.068, 1137.761 1174.310, 1143.589 1162.518 C 1151.642 1146.224, 1148.360 1125.871, 1134.563 1106.536 C 1129.803 1099.865, 1120.148 1090.450, 1113.677 1086.167 C 1108.067 1082.455, 1110.878 1082.232, 1121.693 1085.531 C 1155.468 1095.832, 1177.760 1121.326, 1181.565 1154 C 1184.034 1175.207, 1169.744 1193.854, 1142.629 1204.806 C 1118.100 1214.714, 1080.268 1219.475, 1044.477 1217.158 C 998.152 1214.160, 972.139 1205.507, 954.930 1187.370 C 941.877 1173.614, 936.939 1158.465, 936.909 1132.082 C 936.883 1109.161, 939.401 1094.334, 952.581 1039.786 C 963.708 993.735, 965.417 983.305, 965.408 961.500 C 965.401 944.642, 965.229 942.987, 962.711 935.422 C 957.529 919.858, 949.009 910.035, 934.554 902.961 C 925.250 898.408, 918.126 896.425, 905.503 894.875 C 889.142 892.867, 876.191 895.406, 863.434 903.123 C 832.672 921.731, 812.342 969.747, 814.372 1019 C 815.653 1050.102, 823.797 1073.886, 841.046 1096.906 C 864.184 1127.785, 870.659 1153.911, 864.364 1191 C 863.571 1195.675, 860.448 1210.284, 857.425 1223.464 C 854.401 1236.644, 851.188 1252.169, 850.284 1257.964 C 848.058 1272.237, 848.076 1295.660, 850.323 1307.892 C 851.272 1313.058, 851.862 1317.472, 851.632 1317.701 C 850.824 1318.509, 844.146 1306.416, 841.858 1300 C 839.854 1294.379, 839.548 1291.674, 839.599 1280 C 839.649 1268.368, 840.221 1263.664, 843.738 1246 C 849.952 1214.792, 850.140 1204.725, 844.816 1188.306 C 840.842 1176.050, 826.862 1150.068, 811.560 1126.500 C 787.138 1088.884, 776.220 1069.137, 768.712 1049 C 761.522 1029.715, 760.304 1018.330, 759.030 958.500 C 758.396 928.687, 757.556 909.755, 756.543 902.403 C 750.936 861.741, 736.849 839.956, 710.578 831.324 C 703.472 828.989, 700.816 828.660, 688.500 828.585 C 676.286 828.511, 673.637 828.798, 667.734 830.837 C 642.304 839.620, 627.574 863.964, 620.923 908.198 C 619.823 915.514, 618.650 928.066, 618.316 936.091 C 617.763 949.373, 617.910 951.344, 619.951 958.066 C 624.314 972.428, 630.372 981.905, 650.544 1005.925 C 672.939 1032.591, 679.854 1043.389, 683.416 1057.258 C 685.615 1065.822, 687.358 1094.479, 686.686 1111.048 C 685.569 1138.602, 681.579 1157.180, 673.060 1174.500 C 659.968 1201.116, 638.453 1214.162, 607.500 1214.254 C 594.423 1214.293, 584.752 1212.815, 572.381 1208.886 C 564.546 1206.398, 562.538 1205.278, 558.129 1200.938 C 548.891 1191.845, 539.990 1176.701, 534.361 1160.500 C 531.962 1153.595, 531.576 1150.925, 531.541 1141 C 531.503 1130.233, 531.674 1129.204, 534.235 1124.847 C 536.266 1121.392, 538.313 1119.525, 542.182 1117.597 C 545.048 1116.169, 548.227 1115, 549.247 1115 C 550.919 1115, 550.853 1115.326, 548.582 1118.304 C 542.348 1126.477, 541.641 1133.085, 545.554 1146.589 C 554.505 1177.479, 575.886 1195.004, 600.056 1191.263 C 608.696 1189.926, 619.688 1184.828, 626.716 1178.900 C 639.147 1168.414, 649.560 1150.611, 653.081 1133.825 C 655.572 1121.953, 655.749 1102.580, 653.469 1091.406 C 648.988 1069.443, 636.471 1047.937, 611.399 1019.123 C 582.898 986.369, 574.686 975.448, 567.027 960.110 C 561.549 949.141, 560.332 942.911, 558.508 916.500 C 557.672 904.400, 556.299 890.900, 555.457 886.500 C 551.544 866.069, 540.411 855, 523.772 855 C 512.808 855, 509.915 857.936, 499.141 880 C 487.375 904.096, 477.856 916.028, 452.361 938.639 C 443.436 946.554, 433.890 955.546, 431.149 958.622 C 421.328 969.642, 416.298 983.332, 417.337 996.218 C 418.054 1005.111, 420.602 1010.480, 426.876 1016.315 C 432.081 1021.156, 436.070 1023.278, 454.500 1031.008 C 484.007 1043.384, 493.514 1057.736, 494.724 1091.732 C 495.023 1100.124, 494.738 1113.370, 494.089 1121.232 C 490.144 1169.019, 479.549 1201.327, 462 1219.088 C 449.437 1231.803, 440.508 1234.778, 425.916 1231.112 C 406.683 1226.279, 393.654 1216.058, 387.530 1201 C 386.052 1197.368, 385.553 1192.259, 384.942 1174.500 C 384.103 1150.108, 382.064 1137.216, 376.969 1124.096 C 373.846 1116.051, 373.934 1113.997, 377.232 1118 C 382.269 1124.115, 385.530 1134.968, 390.302 1161.513 C 395.433 1190.044, 414.173 1212.140, 433.253 1212.154 C 450.177 1212.166, 463.941 1199.633, 473.485 1175.519 C 476.245 1168.547, 476.248 1168.516, 475.716 1149.519 C 474.955 1122.298, 471.352 1105.310, 462.854 1088.881 C 455.072 1073.835, 441.723 1064.158, 425.853 1062.060 C 415.854 1060.738, 408.387 1057.864, 401.275 1052.602 C 388.173 1042.907, 378.363 1028.539, 372.844 1010.965 C 369.514 1000.361, 369.504 981.198, 372.824 972.847 C 376.368 963.931, 381.134 958.593, 391.824 951.567 C 406.707 941.783, 415.898 931.116, 424.933 913.136 C 436.064 890.988, 444.125 861.913, 448.952 826.500 C 450.077 818.250, 451.335 809.025, 451.749 806 L 452.500 800.500 461 799.325 C 481.662 796.467, 509.857 795.562, 536.475 796.901 C 550.591 797.612, 562.283 798.037, 562.458 797.847 C 562.632 797.656, 563.088 794.750, 563.470 791.388 C 564.030 786.457, 563.878 785.167, 562.681 784.708 C 561.865 784.395, 554.241 783.821, 545.739 783.432 L 530.280 782.725 528.640 767.112 C 527.737 758.526, 526.511 740.975, 525.915 728.111 C 525.020 708.807, 525.064 704.575, 526.165 703.877 C 526.981 703.360, 525.168 703.019, 521.500 703.002 C 518.200 702.986, 514.487 702.701, 513.250 702.370 C 511.033 701.776, 511 701.905, 511.015 711.133 C 511.041 727.964, 513.674 767.345, 515.526 778.606 L 516.037 781.712 499.268 782.414 C 467.764 783.734, 443.969 786.865, 440.374 790.164 C 438.627 791.767, 438.127 793.751, 437.561 801.307 C 434.611 840.718, 424.935 880.994, 412.314 906.397 C 403.892 923.348, 397.071 931.269, 382.809 940.662 C 371.913 947.838, 366.317 953.708, 361.994 962.500 C 357.591 971.454, 356 979.039, 356 991.082 C 356 1027.193, 380.619 1063.671, 411.500 1073.315 C 414.250 1074.174, 419.800 1075.364, 423.833 1075.960 C 427.866 1076.556, 432.947 1077.953, 435.124 1079.063 C 451.395 1087.364, 461.128 1114.214, 461.384 1151.500 L 461.500 1168.500 457.103 1177.334 C 449.399 1192.812, 439.330 1200.512, 430.059 1198.016 C 427.632 1197.362, 423.957 1195.158, 421.464 1192.861 C 412.031 1184.165, 406.253 1171.239, 402.953 1151.452 C 396.729 1114.131, 389.003 1102.895, 367.527 1099.932 C 363.142 1099.327, 358.763 1098.409, 357.797 1097.892 C 353.815 1095.760, 348 1099.754, 348 1104.621 C 348 1105.881, 350.076 1108.918, 352.931 1111.833 C 358.375 1117.393, 363.998 1128.058, 366.464 1137.500 C 369.263 1148.214, 370.095 1156.064, 370.488 1175.448 C 370.923 1196.880, 371.955 1202.316, 377.642 1213.139 C 386.525 1230.042, 409.763 1244.281, 432.222 1246.582 C 452.598 1248.669, 475.206 1232.451, 488.361 1206.309 C 501.350 1180.498, 509.055 1140.491, 509.220 1098 C 509.335 1068.315, 503.158 1049.768, 488.336 1035.297 C 481.335 1028.462, 471.649 1022.850, 455.063 1016.018 C 433.939 1007.317, 429.567 1002.051, 431.976 988.217 C 434.255 975.127, 438.006 970.228, 462.067 948.921 C 489.204 924.889, 502.418 907.958, 513.521 882.994 C 519.231 870.155, 521.394 867.848, 526.620 869.027 C 538.364 871.676, 541.929 881.119, 543.977 915 C 545.734 944.076, 547.688 953.427, 555.088 968.165 C 562.420 982.767, 570.693 993.800, 597.184 1024.309 C 625.216 1056.591, 635.207 1073.247, 639.569 1094.968 C 641.567 1104.916, 641.075 1125.022, 638.618 1133.847 C 634.917 1147.144, 625.282 1162.385, 616.247 1169.235 C 608.126 1175.393, 602.559 1177.456, 594 1177.479 C 587.536 1177.497, 585.761 1177.090, 581.152 1174.537 C 578.210 1172.908, 573.931 1169.492, 571.642 1166.946 C 565.220 1159.804, 558.734 1145.270, 557.456 1135.158 C 556.928 1130.982, 557.186 1130.119, 559.954 1126.814 C 563.899 1122.102, 571.792 1118.258, 579.736 1117.181 C 583.353 1116.690, 586.819 1115.569, 587.986 1114.512 C 590.525 1112.215, 590.585 1107.585, 588.109 1105.109 C 583.581 1100.581, 552.827 1098.746, 542 1102.357 C 522.991 1108.697, 514.161 1124.652, 517.003 1147.525 C 519.654 1168.854, 532.144 1194.422, 547.630 1210.221 C 554.353 1217.080, 557.259 1218.748, 568.829 1222.393 C 581.355 1226.339, 592.821 1228.002, 607.381 1227.983 C 627.614 1227.956, 642.760 1223.943, 656.311 1215.018 C 681.598 1198.364, 695.604 1170.023, 700.056 1126.500 C 701.425 1113.115, 700.797 1074.297, 699.020 1062.500 C 695.991 1042.383, 688.053 1028.305, 663.377 999.286 C 648.016 981.221, 641.790 972.646, 637.371 963.470 C 632.059 952.435, 631.394 947.527, 632.837 929.988 C 637.846 869.109, 654.698 841.955, 687.432 842.015 C 713.035 842.062, 728.724 853.674, 736.873 878.611 C 742.569 896.043, 744.963 921.468, 745.007 965 C 745.057 1016.006, 747.890 1036.582, 758.224 1061 C 767.170 1082.140, 775.658 1097.256, 797.528 1131 C 819.761 1165.304, 830.108 1185.078, 833.083 1198.953 C 835.020 1207.985, 833.692 1225.341, 829.558 1245 C 824.890 1267.202, 823.803 1285.520, 826.448 1297.410 C 830.674 1316.406, 845.247 1336.048, 864.973 1349.335 C 868.330 1351.596, 873.275 1351.459, 875.460 1349.045 C 877.829 1346.427, 877.161 1342.543, 872.582 1332.313 C 870.566 1327.810, 867.715 1319.710, 866.246 1314.313 C 863.739 1305.104, 863.575 1303.176, 863.570 1283 C 863.564 1259.492, 863.627 1259.078, 873.409 1217.500 C 882.447 1179.083, 883.213 1158.017, 876.434 1134.219 C 873.325 1123.306, 865.702 1107.353, 859.032 1097.802 C 856.227 1093.786, 851.253 1086.675, 847.978 1082 C 827.126 1052.230, 822.441 1005.652, 836.175 964.630 C 845.838 935.768, 862.629 915.815, 882.277 909.847 C 888.194 908.050, 890.800 907.810, 898.897 908.317 C 939.715 910.874, 955.533 930.942, 951.045 974.475 C 949.567 988.813, 945.436 1008.993, 936.098 1047.500 C 924.295 1096.171, 920.590 1123.233, 922.802 1144.609 C 925.425 1169.950, 932.863 1186.242, 948.400 1200.679 C 960.520 1211.940, 974.317 1218.949, 994.249 1223.972 C 1038.958 1235.241, 1100.006 1233.952, 1139.150 1220.915 C 1168.094 1211.274, 1186.284 1196.198, 1193.209 1176.109 C 1196.411 1166.821, 1196.415 1149.863, 1193.218 1138.711 C 1180.531 1094.458, 1140.744 1067.036, 1089.062 1066.926 C 1071.077 1066.888, 1065.078 1068.468, 1063.246 1073.725 C 1061.109 1079.855, 1064.632 1083.023, 1076.126 1085.306 C 1091.589 1088.377, 1103.623 1094.775, 1115.050 1106 C 1127.497 1118.228, 1133.485 1130.591, 1133.454 1144 C 1133.419 1159.446, 1124.171 1169.160, 1105.259 1173.618 C 1095.155 1175.999, 1068.430 1174.999, 1053 1171.663 C 1018.239 1164.146, 998.710 1153.322, 990.768 1137.172 C 987.635 1130.803, 987.502 1130.051, 987.559 1119.014 C 987.613 1108.485, 987.928 1106.590, 991.242 1096.866 C 997.601 1078.211, 1006.543 1061.746, 1030.815 1024 C 1049.902 994.318, 1061.188 975.529, 1066.605 964.420 C 1074.258 948.726, 1078.779 923.701, 1079.688 892 C 1080.650 858.479, 1077.380 830.474, 1067.860 790.707 C 1065.370 780.305, 1064.359 777.626, 1062.453 776.377 C 1060.701 775.229, 1053.837 774.443, 1035.304 773.267 C 1021.662 772.402, 1010.220 771.425, 1009.878 771.097 C 1009.536 770.769, 1008.973 755.117, 1008.627 736.316 L 1007.999 702.133 1010.750 701.716 C 1012.262 701.487, 1009 701.231, 1003.500 701.148 L 993.500 700.997 994.378 735.037" stroke="none" fill="#2c2c2c" fill-rule="evenodd"/></svg>